<svg id="Illustration" xmlns="http://www.w3.org/2000/svg" xmlns:xlink="http://www.w3.org/1999/xlink" viewBox="0 0 1849.47 1059.56"><defs><style>.cls-1,.cls-3{opacity:0.7;}.cls-2,.cls-3{fill:#fff;}.cls-4{fill:url(#Nueva_muestra_de_degradado_1);}.cls-5{fill:url(#Nueva_muestra_de_degradado_1-2);}.cls-6{fill:url(#Nueva_muestra_de_degradado_1-3);}.cls-7{fill:url(#Nueva_muestra_de_degradado_1-4);}.cls-8{fill:url(#Nueva_muestra_de_degradado_1-5);}.cls-9{fill:url(#Nueva_muestra_de_degradado_1-6);}.cls-10{fill:url(#Nueva_muestra_de_degradado_1-7);}.cls-11{fill:url(#Nueva_muestra_de_degradado_1-8);}.cls-12{fill:url(#Nueva_muestra_de_degradado_1-9);}.cls-13{fill:url(#Nueva_muestra_de_degradado_1-10);}.cls-14{fill:url(#Nueva_muestra_de_degradado_1-11);}.cls-15{fill:url(#Nueva_muestra_de_degradado_1-12);}</style><linearGradient id="Nueva_muestra_de_degradado_1" x1="1158.95" y1="215.44" x2="1269.55" y2="466.02" gradientTransform="translate(1305.59 -927.22) rotate(80.73)" gradientUnits="userSpaceOnUse"><stop offset="0" stop-color="#a8278c"/><stop offset="1" stop-color="#1d1d75"/></linearGradient><linearGradient id="Nueva_muestra_de_degradado_1-2" x1="1232.5" y1="142.83" x2="1261.88" y2="419.33" gradientTransform="matrix(1, 0, 0, 1, 0, 0)" xlink:href="#Nueva_muestra_de_degradado_1"/><linearGradient id="Nueva_muestra_de_degradado_1-3" x1="1197.99" y1="146.49" x2="1227.37" y2="422.99" gradientTransform="matrix(1, 0, 0, 1, 0, 0)" xlink:href="#Nueva_muestra_de_degradado_1"/><linearGradient id="Nueva_muestra_de_degradado_1-4" x1="529.77" y1="352.41" x2="577.48" y2="460.5" gradientTransform="translate(436.43 -272.12) rotate(45)" xlink:href="#Nueva_muestra_de_degradado_1"/><linearGradient id="Nueva_muestra_de_degradado_1-5" x1="561.49" y1="321.08" x2="574.16" y2="440.36" gradientTransform="matrix(1, 0, 0, 1, 0, 0)" xlink:href="#Nueva_muestra_de_degradado_1"/><linearGradient id="Nueva_muestra_de_degradado_1-6" x1="546.61" y1="322.67" x2="559.28" y2="441.94" gradientTransform="matrix(1, 0, 0, 1, 0, 0)" xlink:href="#Nueva_muestra_de_degradado_1"/><linearGradient id="Nueva_muestra_de_degradado_1-7" x1="1547.38" y1="592.4" x2="1595.09" y2="700.5" gradientTransform="translate(1956.13 -1009.79) rotate(81.47)" xlink:href="#Nueva_muestra_de_degradado_1"/><linearGradient id="Nueva_muestra_de_degradado_1-8" x1="1579.11" y1="561.08" x2="1591.78" y2="680.35" gradientTransform="matrix(1, 0, 0, 1, 0, 0)" xlink:href="#Nueva_muestra_de_degradado_1"/><linearGradient id="Nueva_muestra_de_degradado_1-9" x1="1564.22" y1="562.66" x2="1576.89" y2="681.94" gradientTransform="matrix(1, 0, 0, 1, 0, 0)" xlink:href="#Nueva_muestra_de_degradado_1"/><linearGradient id="Nueva_muestra_de_degradado_1-10" x1="198.94" y1="576.48" x2="236.61" y2="661.82" gradientTransform="translate(750.15 254.67) rotate(76.08)" xlink:href="#Nueva_muestra_de_degradado_1"/><linearGradient id="Nueva_muestra_de_degradado_1-11" x1="223.99" y1="551.74" x2="234" y2="645.92" gradientTransform="matrix(1, 0, 0, 1, 0, 0)" xlink:href="#Nueva_muestra_de_degradado_1"/><linearGradient id="Nueva_muestra_de_degradado_1-12" x1="212.24" y1="552.99" x2="222.25" y2="647.17" gradientTransform="matrix(1, 0, 0, 1, 0, 0)" xlink:href="#Nueva_muestra_de_degradado_1"/></defs><title>background</title><g class="cls-1"><rect class="cls-2" x="1330.63" y="290.23" width="5.33" height="22.75" rx="2.59"/><rect class="cls-2" x="1321.92" y="298.94" width="22.75" height="5.33" rx="2.59"/></g><g class="cls-1"><rect class="cls-2" x="267.64" y="894.31" width="9.32" height="39.82" rx="4.54"/><rect class="cls-2" x="252.39" y="909.56" width="39.82" height="9.32" rx="4.54"/></g><g class="cls-1"><rect class="cls-2" x="46.77" y="1019.74" width="5.58" height="23.82" rx="2.71"/><rect class="cls-2" x="37.65" y="1028.86" width="23.82" height="5.58" rx="2.71"/></g><g class="cls-1"><rect class="cls-2" x="1834.77" y="123.74" width="5.58" height="23.82" rx="2.71"/><rect class="cls-2" x="1825.65" y="132.86" width="23.82" height="5.58" rx="2.71"/></g><g class="cls-1"><rect class="cls-2" x="428.23" y="41.63" width="7.71" height="32.91" rx="3.75"/><rect class="cls-2" x="415.63" y="54.23" width="32.9" height="7.71" rx="3.75"/></g><g class="cls-1"><rect class="cls-2" x="1620.11" y="1037.02" width="5.28" height="22.54" rx="2.57"/><rect class="cls-2" x="1611.48" y="1045.65" width="22.54" height="5.28" rx="2.57"/></g><path class="cls-2" d="M1249.05,370a3.56,3.56,0,1,1-3.56-3.56A3.56,3.56,0,0,1,1249.05,370Z" transform="translate(-54.77 -104.57)"/><path class="cls-3" d="M1671.66,110.81a6.24,6.24,0,1,1-6.24-6.24A6.23,6.23,0,0,1,1671.66,110.81Z" transform="translate(-54.77 -104.57)"/><path class="cls-3" d="M308.18,397.67a6.24,6.24,0,1,1-6.24-6.23A6.24,6.24,0,0,1,308.18,397.67Z" transform="translate(-54.77 -104.57)"/><path class="cls-3" d="M756.81,216.22a2.78,2.78,0,1,1-2.78-2.78A2.78,2.78,0,0,1,756.81,216.22Z" transform="translate(-54.77 -104.57)"/><path class="cls-3" d="M515.45,506a2.78,2.78,0,1,1-2.78-2.78A2.77,2.77,0,0,1,515.45,506Z" transform="translate(-54.77 -104.57)"/><path class="cls-3" d="M1696.91,729.47a2.79,2.79,0,1,1-2.79-2.78A2.78,2.78,0,0,1,1696.91,729.47Z" transform="translate(-54.77 -104.57)"/><path class="cls-3" d="M1879.29,929.79a10.92,10.92,0,1,1-10.92-10.91A10.92,10.92,0,0,1,1879.29,929.79Z" transform="translate(-54.77 -104.57)"/><path class="cls-3" d="M82.16,760.22A10.92,10.92,0,1,1,71.24,749.3,10.92,10.92,0,0,1,82.16,760.22Z" transform="translate(-54.77 -104.57)"/><path class="cls-3" d="M1415.9,116.67a2.78,2.78,0,1,1-2.78-2.78A2.79,2.79,0,0,1,1415.9,116.67Z" transform="translate(-54.77 -104.57)"/><path class="cls-3" d="M60.33,132.22a2.78,2.78,0,1,1-2.78-2.79A2.79,2.79,0,0,1,60.33,132.22Z" transform="translate(-54.77 -104.57)"/><path class="cls-3" d="M1888.33,504.22a2.78,2.78,0,1,1-2.78-2.79A2.79,2.79,0,0,1,1888.33,504.22Z" transform="translate(-54.77 -104.57)"/><circle class="cls-4" cx="1198.19" cy="304.36" r="88.13" transform="matrix(0.16, -0.99, 0.99, 0.16, 650.06, 1333.32)"/><path class="cls-5" d="M1270.68,286.59c6.23,15,1.47,31.21-10.65,36.25s-27-3-33.23-18-1.46-31.21,10.65-36.26S1264.45,271.61,1270.68,286.59Z" transform="translate(-54.77 -104.57)"/><path class="cls-6" d="M1228.33,252.32c-2.53,7.95-13.43,11.59-24.35,8.12s-17.71-12.73-15.18-20.69,13.43-11.6,24.35-8.13S1230.86,244.36,1228.33,252.32Z" transform="translate(-54.77 -104.57)"/><circle class="cls-7" cx="546.69" cy="390.76" r="38.02" transform="translate(-170.95 396.45) rotate(-45)"/><path class="cls-8" d="M578,383.1c2.69,6.46.64,13.46-4.59,15.64S561.73,397.44,559,391s-.64-13.46,4.59-15.64S575.27,376.64,578,383.1Z" transform="translate(-54.77 -104.57)"/><path class="cls-9" d="M559.69,368.31c-1.09,3.44-5.79,5-10.5,3.51s-7.64-5.49-6.55-8.93,5.8-5,10.5-3.5S560.78,364.88,559.69,368.31Z" transform="translate(-54.77 -104.57)"/><circle class="cls-10" cx="1564.31" cy="630.76" r="38.02" transform="translate(653.79 1979.67) rotate(-81.47)"/><path class="cls-11" d="M1595.58,623.09c2.69,6.47.63,13.47-4.6,15.64s-11.64-1.3-14.33-7.76-.63-13.46,4.6-15.64S1592.89,616.63,1595.58,623.09Z" transform="translate(-54.77 -104.57)"/><path class="cls-12" d="M1577.31,608.31c-1.09,3.43-5.79,5-10.5,3.51s-7.64-5.5-6.55-8.93,5.79-5,10.5-3.51S1578.4,604.88,1577.31,608.31Z" transform="translate(-54.77 -104.57)"/><circle class="cls-13" cx="212.31" cy="606.76" r="30.02" transform="translate(-482.48 562.25) rotate(-76.08)"/><path class="cls-14" d="M237,600.71c2.12,5.1.5,10.63-3.63,12.34s-9.19-1-11.31-6.12-.5-10.63,3.62-12.35S234.88,595.61,237,600.71Z" transform="translate(-54.77 -104.57)"/><path class="cls-15" d="M222.57,589c-.86,2.72-4.57,4-8.29,2.77s-6-4.33-5.17-7,4.58-4,8.29-2.76S223.44,586.32,222.57,589Z" transform="translate(-54.77 -104.57)"/></svg>